# xmcd
#
# Track frame offsets: 
#        150
#        5240
#        23190
#        37719
#        49881
#        63495
#        85043
#        102816
#        117408
#        134560
#        150452
#        162918
#        173025
#        190635
#        206313
#        219588
#        235395
#        263894
#        276438
#        292429
#        302352
#
# Disc length: 4154 seconds
#
# Revision: 3
# Processed by: cddbd v1.5.2PL0 Copyright (c) Steve Scherf et al.
# Submitted via: ExactAudioCopy v1.1
#
DISCID=2a103815
DTITLE=Dale Watson - Live In London...England!
DYEAR=2002
DGENRE=Country
TTITLE0=Intro
TTITLE1=Real Country Song
TTITLE2=Can't Be Satisfied
TTITLE3=Ain't That Livin'
TTITLE4=In The Jail House Now
TTITLE5=Mama's Hungry Eyes
TTITLE6=Another Day, Another Dollar
TTITLE7=Legends (What If)
TTITLE8=Bright Lights And Blonde-Haired Women
TTITLE9=Heart Of Stone
TTITLE10=Nashville Rash
TTITLE11=Lee's Liquor Lounge
TTITLE12=I Hate These Songs
TTITLE13=Turn Off The Jukebox
TTITLE14=You Are My Friend
TTITLE15=How To Break Your Own Heart
TTITLE16=Country My Ass
TTITLE17=I Got Stripes
TTITLE18=A Couple Of Beers Ago
TTITLE19=No Fussin', No Cussin'
TTITLE20=Closing - Call It A Night
EXTD=YEAR: 2002 ID3G:   2
EXTT0=
EXTT1=
EXTT2=
EXTT3=
EXTT4=
EXTT5=
EXTT6=
EXTT7=
EXTT8=
EXTT9=
EXTT10=
EXTT11=
EXTT12=
EXTT13=
EXTT14=
EXTT15=
EXTT16=
EXTT17=
EXTT18=
EXTT19=
EXTT20=
PLAYORDER=
